<svg width="198.65937499999998px" height="236px" xmlns="http://www.w3.org/2000/svg" viewBox="150.67031250000002 -43 198.65937499999998 236" style="background: rgb(253, 253, 253);" preserveAspectRatio="xMidYMid"><defs><filter id="editing-hole" x="-100%" y="-100%" width="300%" height="300%"><feFlood flood-color="#bbcedd" result="black"></feFlood><feMorphology operator="dilate" radius="2" in="SourceGraphic" result="erode"></feMorphology><feGaussianBlur in="erode" stdDeviation="4" result="blur"></feGaussianBlur><feOffset in="blur" dx="2" dy="2" result="offset"></feOffset><feComposite operator="atop" in="offset" in2="black" result="merge"></feComposite><feComposite operator="in" in="merge" in2="SourceGraphic" result="inner-shadow"></feComposite></filter></defs><g filter="url(#editing-hole)"><g transform="translate(184.16501712799072, 116.22499990463257)"><path d="M50.31-10.09L50.31-10.09L50.31-10.09Q52.48-10.09 53.65-9.08L53.65-9.08L53.65-9.08Q54.81-8.07 54.81-6.37L54.81-6.37L54.81-6.37Q54.81-4.50 53.88-3.42L53.88-3.42L53.88-3.42Q52.95-2.33 51.47-1.86L51.47-1.86L51.47-1.86Q50.00-1.40 48.21-1.32L48.21-1.32L48.21-1.32Q46.43-1.24 44.72-1.24L44.72-1.24L44.72-1.24Q36.96-1.24 29.73-3.49L29.73-3.49L29.73-3.49Q22.51-5.75 17.00-10.09L17.00-10.09L17.00-10.09Q11.49-14.44 8.23-20.96L8.23-20.96L8.23-20.96Q4.97-27.48 4.97-36.18L4.97-36.18L4.97-36.18Q4.97-47.36 9.70-55.35L9.70-55.35L9.70-55.35Q14.44-63.35 21.51-68.63L21.51-68.63L21.51-68.63Q28.57-73.91 36.72-76.63L36.72-76.63L36.72-76.63Q44.87-79.34 51.86-79.97L51.86-79.97L51.86-79.97Q54.66-79.97 55.74-78.57L55.74-78.57L55.74-78.57Q56.83-77.17 56.83-75.62L56.83-75.62L56.83-75.62Q56.83-71.74 53.41-71.27L53.41-71.27L53.41-71.27Q47.05-70.34 40.14-67.93L40.14-67.93L40.14-67.93Q33.23-65.53 27.48-61.18L27.48-61.18L27.48-61.18Q21.74-56.83 18.01-50.70L18.01-50.70L18.01-50.70Q14.29-44.56 14.29-36.18L14.29-36.18L14.29-36.18Q14.29-29.35 17.24-24.38L17.24-24.38L17.24-24.38Q20.19-19.41 24.84-16.23L24.84-16.23L24.84-16.23Q29.50-13.04 35.32-11.49L35.32-11.49L35.32-11.49Q41.15-9.94 46.89-9.94L46.89-9.94L46.89-9.94Q47.67-9.94 48.60-9.94L48.60-9.94L48.60-9.94Q49.53-9.94 50.31-10.09ZM93.47-38.97L93.47-38.97L93.47-38.97Q99.38-40.06 103.80-41.30L103.80-41.30L103.80-41.30Q108.23-42.54 111.18-44.33L111.18-44.33L111.18-44.33Q114.13-46.12 115.60-48.68L115.60-48.68L115.60-48.68Q117.08-51.24 117.08-55.12L117.08-55.12L117.08-55.12Q117.08-58.38 114.59-61.02L114.59-61.02L114.59-61.02Q112.11-63.66 108.07-65.53L108.07-65.53L108.07-65.53Q104.03-67.39 98.75-68.32L98.75-68.32L98.75-68.32Q93.47-69.25 87.73-69.25L87.73-69.25L87.73-69.25Q86.33-69.25 84.93-69.25L84.93-69.25L84.93-69.25Q83.54-69.25 81.98-69.10L81.98-69.10L81.98-69.10Q82.92-63.97 83.30-57.45L83.30-57.45L83.30-57.45Q83.69-50.93 83.69-43.94L83.69-43.94L83.69-43.94Q83.69-38.04 83.46-31.99L83.46-31.99L83.46-31.99Q83.23-25.93 82.92-20.57L82.92-20.57L82.92-20.57Q82.61-15.22 82.06-10.79L82.06-10.79L82.06-10.79Q81.52-6.37 81.05-3.57L81.05-3.57L81.05-3.57Q80.59-1.40 79.27-0.31L79.27-0.31L79.27-0.31Q77.95 0.78 76.24 0.78L76.24 0.78L76.24 0.78Q74.53 0.78 73.06-0.31L73.06-0.31L73.06-0.31Q71.58-1.40 71.58-3.57L71.58-3.57L71.58-3.57Q71.58-4.35 71.74-4.81L71.74-4.81L71.74-4.81Q72.20-8.70 72.75-13.43L72.75-13.43L72.75-13.43Q73.29-18.17 73.60-23.45L73.60-23.45L73.60-23.45Q73.91-28.73 74.14-34.24L74.14-34.24L74.14-34.24Q74.38-39.75 74.38-45.18L74.38-45.18L74.38-45.18Q74.38-54.04 73.75-61.57L73.75-61.57L73.75-61.57Q73.13-69.10 71.43-73.13L71.43-73.13L71.43-73.13Q70.49-75.15 70.49-76.86L70.49-76.86L70.49-76.86Q70.49-79.03 71.58-80.35L71.58-80.35L71.58-80.35Q72.67-81.67 74.38-81.67L74.38-81.67L74.38-81.67Q77.33-81.67 79.50-78.10L79.50-78.10L79.50-78.10Q81.21-78.26 82.76-78.26L82.76-78.26L82.76-78.26Q84.31-78.26 85.87-78.26L85.87-78.26L85.87-78.26Q93.63-78.26 101.01-76.86L101.01-76.86L101.01-76.86Q108.38-75.46 114.05-72.67L114.05-72.67L114.05-72.67Q119.72-69.87 123.21-65.53L123.21-65.53L123.21-65.53Q126.70-61.18 126.70-55.12L126.70-55.12L126.70-55.12Q126.70-44.41 118.40-38.35L118.40-38.35L118.40-38.35Q110.09-32.30 95.03-30.28L95.03-30.28L95.03-30.28Q94.72-30.28 94.64-30.20L94.64-30.20L94.64-30.20Q94.56-30.12 94.25-30.12L94.25-30.12L94.25-30.12Q92.23-30.12 91.30-31.60L91.30-31.60L91.30-31.60Q90.37-33.07 90.37-34.94L90.37-34.94L90.37-34.94Q90.37-36.18 91.15-37.42L91.15-37.42L91.15-37.42Q91.92-38.66 93.47-38.97Z" fill="#85a2b6"></path></g></g><style>text {
    font-size: 64px;
    font-family: Arial Black;
    dominant-baseline: central;
    text-anchor: middle;
    }</style></svg>